<?xml version="1.0" encoding="utf-8"?>
<!-- Generator: Adobe Illustrator 25.0.1, SVG Export Plug-In . SVG Version: 6.00 Build 0)  -->
<svg version="1.1" id="Capa_1" xmlns="http://www.w3.org/2000/svg" xmlns:xlink="http://www.w3.org/1999/xlink" x="0px" y="0px"
	 viewBox="0 0 1400 329.3" style="enable-background:new 0 0 1400 329.3;" xml:space="preserve">
<style type="text/css">
	.st0{fill:#6CC3D5;}
	.st1{fill:#F3969A;}
	.st2{fill:#FFFFFF;}
</style>
<g>
	<path class="st1" d="M381.6,215.55c0-37.97,8.65-66.55,25.96-85.73c17.31-19.18,45.63-28.77,84.99-28.77
		c39.35,0,66.74,7.97,82.18,23.91c15.44,15.94,23.16,42.09,23.16,78.45l-1.87,28.76h-103.1v12.7c6.22,1.49,15.32,2.24,27.27,2.24
		c25.4,0,45.95-1.12,61.64-3.36l7.85-1.12v70.23c-2,1.25-5.17,2.8-9.53,4.67c-4.36,1.87-14.76,4.3-31.19,7.29
		c-16.44,2.99-34.74,4.48-54.91,4.48c-39.85,0-68.55-9.46-86.1-28.39C390.38,281.98,381.6,253.53,381.6,215.55z M487.32,198.92
		v14.57h21.29v-14.57c0-3.23-1.06-5.85-3.17-7.85c-2.12-1.99-4.73-2.99-7.84-2.99c-3.12,0-5.6,1-7.47,2.99
		C488.25,193.07,487.32,195.69,487.32,198.92z"/>
	<path class="st1" d="M718.55,207.14v118.42H612.83V104.79h93.76l3.74,27.27c0.99-2.74,3.23-6.1,6.72-10.09
		c3.49-3.98,7.22-7.34,11.21-10.09c10.95-7.22,25.53-10.83,43.71-10.83c24.4,0,42.77,6.72,55.1,20.17
		c12.33,13.45,18.49,33,18.49,58.65v145.69H739.84V207.14c0-2.99-1.06-5.54-3.17-7.66c-2.12-2.11-4.67-3.18-7.66-3.18
		c-2.99,0-5.48,1.06-7.47,3.18C719.54,201.6,718.55,204.15,718.55,207.14z"/>
	<path class="st0" d="M940.82,329.3c-16.19,0-30.95-1.12-44.27-3.36c-13.32-2.24-22.6-4.48-27.83-6.72l-7.85-3.36v-93.39
		c9.96,3.99,22.54,6.11,37.73,6.35V67.43h128.88v187.53c0,25.16-7.04,43.83-21.11,56.03C992.31,323.2,970.45,329.3,940.82,329.3z"/>
	<path class="st1" d="M348.36,225.07c17.68-12.95,26.52-33,26.52-60.14c0-35.86-10.46-61.08-31.38-75.65
		c-20.92-14.57-53.67-21.85-98.25-21.85h-67.08L109.65,0v76.31h0v148.41c-29.82-3.17-69.32-2.9-109.66,10.3l4.51,13.77
		c38.39-12.56,76.61-12.5,105.15-9.33v32.08C80.07,274.51,40.47,280.78,0,294.02l4.51,13.77c38.29-12.53,76.39-18.62,105.15-21.58
		v39.34h128.51V250.1h8.22l2.61,8.97c4.98,19.18,8.46,41.34,10.46,66.49h122.9C374.63,285.22,363.3,251.72,348.36,225.07z
		 M259.45,209.01c0,3.24-1,5.85-2.99,7.84c-2,2-4.48,2.99-7.47,2.99h-10.83v-43.71h10.83c2.99,0,5.47,0.93,7.47,2.8
		c1.99,1.87,2.99,4.43,2.99,7.66V209.01z"/>
	<path class="st0" d="M1284.12,249.35c0-3.14-0.18-6.16-0.49-9.06c29.08-3.9,70.37-5.08,111.87,8.5l4.51-13.77
		c-44.98-14.72-88.88-13.36-119.52-9.09c-3.44-9.85-9.31-17.87-17.66-24.02c-14.2-10.46-37.48-16.93-69.86-19.43v-9.71
		c35.11,0,62.76,4.61,82.93,13.82V96.32l0.23,0.05V2.56l-57.68,64.06c-15.53-1.91-31.95-2.92-49.38-2.92
		c-42.09,0-73.72,7.66-94.88,22.97c-21.17,15.31-31.75,36.3-31.75,62.94c0,26.65,7.72,45.33,23.16,56.03
		c15.44,10.71,38.35,17.18,68.73,19.43v8.97c-17.93,0-34.68-1.37-50.24-4.11c-15.57-2.74-25.59-4.98-30.07-6.72
		c-4.48-1.74-7.85-3.11-10.09-4.11v93.02l10.09,4.48c6.47,2.74,19.17,5.55,38.1,8.4c18.92,2.86,40.72,4.3,65.37,4.3
		c43.08,0,74.96-6.97,95.63-20.92c9.72-6.56,17.13-14.41,22.28-23.51c29.62,2.27,74.71,8.07,120.1,22.93l4.51-13.77
		c-44.75-14.64-88.45-20.76-118.71-23.31C1283.16,264.11,1284.12,257,1284.12,249.35z"/>
</g>
</svg>
