<?xml version="1.0" encoding="UTF-8" standalone="no"?>
<!-- Generator: Adobe Illustrator 25.0.1, SVG Export Plug-In . SVG Version: 6.00 Build 0)  -->

<svg
   xmlns:dc="http://purl.org/dc/elements/1.1/"
   xmlns:cc="http://creativecommons.org/ns#"
   xmlns:rdf="http://www.w3.org/1999/02/22-rdf-syntax-ns#"
   xmlns:svg="http://www.w3.org/2000/svg"
   xmlns="http://www.w3.org/2000/svg"
   xmlns:sodipodi="http://sodipodi.sourceforge.net/DTD/sodipodi-0.dtd"
   xmlns:inkscape="http://www.inkscape.org/namespaces/inkscape"
   version="1.1"
   id="Capa_1"
   x="0px"
   y="0px"
   viewBox="0 0 1948.2625 462.49756"
   xml:space="preserve"
   sodipodi:docname="renjs-logo.svg"
   width="1948.2625"
   height="462.49756"
   inkscape:version="0.92.5 (2060ec1f9f, 2020-04-08)"><metadata
   id="metadata19"><rdf:RDF><cc:Work
       rdf:about=""><dc:format>image/svg+xml</dc:format><dc:type
         rdf:resource="http://purl.org/dc/dcmitype/StillImage" /><dc:title></dc:title></cc:Work></rdf:RDF></metadata><defs
   id="defs17" /><sodipodi:namedview
   pagecolor="#ffffff"
   bordercolor="#666666"
   borderopacity="1"
   objecttolerance="10"
   gridtolerance="10"
   guidetolerance="10"
   inkscape:pageopacity="0"
   inkscape:pageshadow="2"
   inkscape:window-width="1848"
   inkscape:window-height="1016"
   id="namedview15"
   showgrid="false"
   inkscape:zoom="0.33714286"
   inkscape:cx="1671.2181"
   inkscape:cy="189.52861"
   inkscape:window-x="72"
   inkscape:window-y="27"
   inkscape:window-maximized="1"
   inkscape:current-layer="Capa_1" />
<style
   type="text/css"
   id="style2">
	.st0{fill:#6CC3D5;}
	.st1{fill:#F3969A;}
	.st2{fill:#FFFFFF;}
</style>
<g
   id="g12"
   transform="matrix(0.33035069,0,0,0.33035069,0,0.00660701)">
	<path
   class="st1"
   d="m 391.7,791.51 c 3.3,-3.3 4.96,-7.64 4.96,-13.01 v -37.18 c 0,-5.36 -1.66,-9.61 -4.96,-12.7 -3.31,-3.1 -7.44,-4.65 -12.39,-4.65 h -17.97 v 72.5 h 17.97 c 4.95,0 9.07,-1.64 12.39,-4.96 z"
   id="path4"
   inkscape:connector-curvature="0"
   style="fill:#f3969a" />
	<path
   class="st1"
   d="m 1190.07,943.33 c -34.29,23.14 -87.17,34.7 -158.63,34.7 -40.9,0 -77.05,-2.38 -108.44,-7.13 -24.24,-3.66 -42.3,-7.27 -54.22,-10.82 0,0 0.01,-0.01 0.01,-0.01 26.99,-23.41 40.68,-58.86 40.68,-105.36 v -41.56 c 0.07,0.01 0.14,0.02 0.21,0.04 25.81,4.55 53.6,6.82 83.35,6.82 v -14.87 c -33.26,-2.45 -61.09,-7.99 -83.56,-16.56 V 565.45 c 34.34,-18.65 81.37,-28 141.19,-28 28.85,0 56.03,1.67 81.75,4.82 l 95.67,-106.24 v 155.62 l -0.19,-0.04 v 149.71 c -33.46,-15.28 -79.32,-22.93 -137.57,-22.93 v 16.11 c 53.7,4.13 92.33,14.87 115.88,32.22 13.85,10.2 23.59,23.51 29.29,39.85 41.11,-5.73 96.63,-8.29 155.82,3.85 5.7,-35.98 8.7,-72.85 8.7,-110.44 0,-386.6 -313.4,-700 -700,-700 C 313.41,-0.02 0,313.4 0,700 c 0,37.59 3,74.48 8.71,110.47 51.66,-10.6 100.54,-10.05 139.46,-5.91 V 558.38 h -0.01 V 431.79 l 113.67,111.85 h 111.28 c 73.94,0 128.27,12.08 162.97,36.25 34.7,24.17 52.05,65.99 52.05,125.48 0,45.03 -14.67,78.29 -44,99.77 24.79,44.21 43.58,99.77 56.39,166.69 H 396.65 c -3.31,-41.72 -9.09,-78.49 -17.35,-110.3 l -4.34,-14.87 H 361.33 V 971.83 H 148.17 v -65.26 c -31.72,3.26 -70.3,8.84 -111.25,18.31 C 130.58,1201.17 392.07,1400 700,1400 c 307.93,0 569.41,-198.83 663.08,-475.1 -52.36,-12.11 -100.82,-17.86 -136.05,-20.55 -8.54,15.08 -20.83,28.1 -36.96,38.98 z m -354.54,4.34 c -23.34,20.24 -59.59,30.36 -108.75,30.36 -26.6,0 -63.61,-1.84 -85.54,-5.48 l -0.43,-2.26 c -12.33,-64.41 -30.45,-119.2 -53.9,-162.98 1.29,-1.07 -1.59,-2.2 -0.37,-3.32 14.86,4.54 49.47,7.01 70.21,7.35 v -267.7 h 213.78 v 311.07 c 0.01,41.74 -11.67,72.72 -35,92.96 z"
   id="path6"
   inkscape:connector-curvature="0"
   style="fill:#f3969a" />
	<path
   class="st1"
   d="m 1240.69,830.39 c 0.52,4.82 0.81,9.82 0.81,15.04 0,12.68 -1.58,24.47 -4.69,35.43 35.7,3 82.71,9.04 133.59,21 6.65,-22.13 12.24,-44.71 16.7,-67.7 -55.03,-11.28 -107.35,-9.01 -146.41,-3.77 z"
   id="path8"
   inkscape:connector-curvature="0"
   style="fill:#f3969a" />
	<path
   class="st1"
   d="m 148.17,829.02 c -37.59,-4.18 -85.32,-5.06 -135.26,5.16 4.46,22.97 10.04,45.54 16.69,67.65 44.03,-10.35 85.16,-16.25 118.58,-19.6 v -53.21 z"
   id="path10"
   inkscape:connector-curvature="0"
   style="fill:#f3969a" />
</g>
<style
   id="style826"
   type="text/css">
	.st0{fill:#6CC3D5;}
	.st1{fill:#F3969A;}
	.st2{fill:#FFFFFF;}
</style><g
   id="g838"
   transform="translate(548.2524,66.598787)">
	<path
   id="path828"
   d="m 381.6,215.55 c 0,-37.97 8.65,-66.55 25.96,-85.73 17.31,-19.18 45.63,-28.77 84.99,-28.77 39.35,0 66.74,7.97 82.18,23.91 15.44,15.94 23.16,42.09 23.16,78.45 l -1.87,28.76 h -103.1 v 12.7 c 6.22,1.49 15.32,2.24 27.27,2.24 25.4,0 45.95,-1.12 61.64,-3.36 l 7.85,-1.12 v 70.23 c -2,1.25 -5.17,2.8 -9.53,4.67 -4.36,1.87 -14.76,4.3 -31.19,7.29 -16.44,2.99 -34.74,4.48 -54.91,4.48 -39.85,0 -68.55,-9.46 -86.1,-28.39 -17.57,-18.93 -26.35,-47.38 -26.35,-85.36 z m 105.72,-16.63 v 14.57 h 21.29 v -14.57 c 0,-3.23 -1.06,-5.85 -3.17,-7.85 -2.12,-1.99 -4.73,-2.99 -7.84,-2.99 -3.12,0 -5.6,1 -7.47,2.99 -1.88,2 -2.81,4.62 -2.81,7.85 z"
   class="st1"
   inkscape:connector-curvature="0"
   style="fill:#f3969a" />
	<path
   id="path830"
   d="M 718.55,207.14 V 325.56 H 612.83 V 104.79 h 93.76 l 3.74,27.27 c 0.99,-2.74 3.23,-6.1 6.72,-10.09 3.49,-3.98 7.22,-7.34 11.21,-10.09 10.95,-7.22 25.53,-10.83 43.71,-10.83 24.4,0 42.77,6.72 55.1,20.17 12.33,13.45 18.49,33 18.49,58.65 V 325.56 H 739.84 V 207.14 c 0,-2.99 -1.06,-5.54 -3.17,-7.66 -2.12,-2.11 -4.67,-3.18 -7.66,-3.18 -2.99,0 -5.48,1.06 -7.47,3.18 -2,2.12 -2.99,4.67 -2.99,7.66 z"
   class="st1"
   inkscape:connector-curvature="0"
   style="fill:#f3969a" />
	<path
   id="path832"
   d="m 940.82,329.3 c -16.19,0 -30.95,-1.12 -44.27,-3.36 -13.32,-2.24 -22.6,-4.48 -27.83,-6.72 l -7.85,-3.36 v -93.39 c 9.96,3.99 22.54,6.11 37.73,6.35 V 67.43 h 128.88 v 187.53 c 0,25.16 -7.04,43.83 -21.11,56.03 -14.06,12.21 -35.92,18.31 -65.55,18.31 z"
   class="st0"
   inkscape:connector-curvature="0"
   style="fill:#6cc3d5" />
	<path
   id="path834"
   d="m 348.36,225.07 c 17.68,-12.95 26.52,-33 26.52,-60.14 0,-35.86 -10.46,-61.08 -31.38,-75.65 C 322.58,74.71 289.83,67.43 245.25,67.43 H 178.17 L 109.65,0 v 76.31 0 148.41 c -29.82,-3.17 -69.32,-2.9 -109.66,10.3 l 4.51,13.77 c 38.39,-12.56 76.61,-12.5 105.15,-9.33 v 32.08 C 80.07,274.51 40.47,280.78 0,294.02 l 4.51,13.77 C 42.8,295.26 80.9,289.17 109.66,286.21 v 39.34 H 238.17 V 250.1 h 8.22 l 2.61,8.97 c 4.98,19.18 8.46,41.34 10.46,66.49 h 122.9 c -7.73,-40.34 -19.06,-73.84 -34,-100.49 z m -88.91,-16.06 c 0,3.24 -1,5.85 -2.99,7.84 -2,2 -4.48,2.99 -7.47,2.99 h -10.83 v -43.71 h 10.83 c 2.99,0 5.47,0.93 7.47,2.8 1.99,1.87 2.99,4.43 2.99,7.66 z"
   class="st1"
   inkscape:connector-curvature="0"
   style="fill:#f3969a" />
	<path
   id="path836"
   d="m 1284.12,249.35 c 0,-3.14 -0.18,-6.16 -0.49,-9.06 29.08,-3.9 70.37,-5.08 111.87,8.5 l 4.51,-13.77 c -44.98,-14.72 -88.88,-13.36 -119.52,-9.09 -3.44,-9.85 -9.31,-17.87 -17.66,-24.02 -14.2,-10.46 -37.48,-16.93 -69.86,-19.43 v -9.71 c 35.11,0 62.76,4.61 82.93,13.82 V 96.32 l 0.23,0.05 V 2.56 l -57.68,64.06 c -15.53,-1.91 -31.95,-2.92 -49.38,-2.92 -42.09,0 -73.72,7.66 -94.88,22.97 -21.17,15.31 -31.75,36.3 -31.75,62.94 0,26.65 7.72,45.33 23.16,56.03 15.44,10.71 38.35,17.18 68.73,19.43 v 8.97 c -17.93,0 -34.68,-1.37 -50.24,-4.11 -15.57,-2.74 -25.59,-4.98 -30.07,-6.72 -4.48,-1.74 -7.85,-3.11 -10.09,-4.11 v 93.02 l 10.09,4.48 c 6.47,2.74 19.17,5.55 38.1,8.4 18.92,2.86 40.72,4.3 65.37,4.3 43.08,0 74.96,-6.97 95.63,-20.92 9.72,-6.56 17.13,-14.41 22.28,-23.51 29.62,2.27 74.71,8.07 120.1,22.93 l 4.51,-13.77 c -44.75,-14.64 -88.45,-20.76 -118.71,-23.31 1.86,-6.61 2.82,-13.72 2.82,-21.37 z"
   class="st0"
   inkscape:connector-curvature="0"
   style="fill:#6cc3d5" />
</g></svg>